<svg width="58" height="82" viewBox="0 0 58 82" fill="none" xmlns="http://www.w3.org/2000/svg">
<path d="M36.25 19.3333H36.2742" stroke="#1B255A" stroke-width="3.625" stroke-linecap="round" stroke-linejoin="round"/>
<path d="M41.0833 9.66667H16.9166C12.9126 9.66667 9.66663 12.9126 9.66663 16.9167V41.0833C9.66663 45.0874 12.9126 48.3333 16.9166 48.3333H41.0833C45.0874 48.3333 48.3333 45.0874 48.3333 41.0833V16.9167C48.3333 12.9126 45.0874 9.66667 41.0833 9.66667Z" stroke="#1B255A" stroke-width="3.625" stroke-linecap="round" stroke-linejoin="round"/>
<path d="M9.66663 36.25L19.3333 26.5833C20.4354 25.5228 21.6857 24.9645 22.9583 24.9645C24.2309 24.9645 25.4812 25.5228 26.5833 26.5833L38.6666 38.6667" stroke="#1B255A" stroke-width="3.625" stroke-linecap="round" stroke-linejoin="round"/>
<path d="M33.8334 33.8333L36.25 31.4167C37.3522 30.3561 38.6024 29.7978 39.875 29.7978C41.1477 29.7978 42.3979 30.3561 43.5 31.4167L48.3334 36.25" stroke="#1B255A" stroke-width="3.625" stroke-linecap="round" stroke-linejoin="round"/>
<path d="M8.88512 70.24C9.53579 70.3787 10.0585 70.704 10.4531 71.216C10.8478 71.7173 11.0451 72.2933 11.0451 72.944C11.0451 73.8827 10.7145 74.6293 10.0531 75.184C9.40246 75.728 8.49046 76 7.31712 76H2.08512V64.768H7.14112C8.28246 64.768 9.17312 65.0293 9.81312 65.552C10.4638 66.0747 10.7891 66.784 10.7891 67.68C10.7891 68.3413 10.6131 68.8907 10.2611 69.328C9.91979 69.7653 9.46112 70.0693 8.88512 70.24ZM4.82112 69.312H6.61312C7.06112 69.312 7.40246 69.216 7.63712 69.024C7.88246 68.8213 8.00512 68.528 8.00512 68.144C8.00512 67.76 7.88246 67.4667 7.63712 67.264C7.40246 67.0613 7.06112 66.96 6.61312 66.96H4.82112V69.312ZM6.83712 73.792C7.29579 73.792 7.64779 73.6907 7.89312 73.488C8.14912 73.2747 8.27712 72.9707 8.27712 72.576C8.27712 72.1813 8.14379 71.872 7.87712 71.648C7.62112 71.424 7.26379 71.312 6.80512 71.312H4.82112V73.792H6.83712ZM21.304 74.016H17.112L16.44 76H13.576L17.64 64.768H20.808L24.872 76H21.976L21.304 74.016ZM20.6 71.904L19.208 67.792L17.832 71.904H20.6ZM31.8529 76.112C31.0315 76.112 30.2955 75.9787 29.6449 75.712C28.9942 75.4453 28.4715 75.0507 28.0769 74.528C27.6929 74.0053 27.4902 73.376 27.4689 72.64H30.3809C30.4235 73.056 30.5675 73.376 30.8129 73.6C31.0582 73.8133 31.3782 73.92 31.7729 73.92C32.1782 73.92 32.4982 73.8293 32.7329 73.648C32.9675 73.456 33.0849 73.1947 33.0849 72.864C33.0849 72.5867 32.9889 72.3573 32.7969 72.176C32.6155 71.9947 32.3862 71.8453 32.1089 71.728C31.8422 71.6107 31.4582 71.4773 30.9569 71.328C30.2315 71.104 29.6395 70.88 29.1809 70.656C28.7222 70.432 28.3275 70.1013 27.9969 69.664C27.6662 69.2267 27.5009 68.656 27.5009 67.952C27.5009 66.9067 27.8795 66.0907 28.6369 65.504C29.3942 64.9067 30.3809 64.608 31.5969 64.608C32.8342 64.608 33.8315 64.9067 34.5889 65.504C35.3462 66.0907 35.7515 66.912 35.8049 67.968H32.8449C32.8235 67.6053 32.6902 67.3227 32.4449 67.12C32.1995 66.9067 31.8849 66.8 31.5009 66.8C31.1702 66.8 30.9035 66.8907 30.7009 67.072C30.4982 67.2427 30.3969 67.4933 30.3969 67.824C30.3969 68.1867 30.5675 68.4693 30.9089 68.672C31.2502 68.8747 31.7835 69.0933 32.5089 69.328C33.2342 69.5733 33.8209 69.808 34.2689 70.032C34.7275 70.256 35.1222 70.5813 35.4529 71.008C35.7835 71.4347 35.9489 71.984 35.9489 72.656C35.9489 73.296 35.7835 73.8773 35.4529 74.4C35.1329 74.9227 34.6635 75.3387 34.0449 75.648C33.4262 75.9573 32.6955 76.112 31.8529 76.112ZM42.0486 64.768V76H39.3126V64.768H42.0486ZM45.2474 70.368C45.2474 69.2587 45.4874 68.272 45.9674 67.408C46.4474 66.5333 47.114 65.856 47.9674 65.376C48.8314 64.8853 49.8074 64.64 50.8954 64.64C52.2287 64.64 53.37 64.992 54.3194 65.696C55.2687 66.4 55.9034 67.36 56.2234 68.576H53.2154C52.9914 68.1067 52.6714 67.7493 52.2554 67.504C51.85 67.2587 51.386 67.136 50.8634 67.136C50.0207 67.136 49.338 67.4293 48.8154 68.016C48.2927 68.6027 48.0314 69.3867 48.0314 70.368C48.0314 71.3493 48.2927 72.1333 48.8154 72.72C49.338 73.3067 50.0207 73.6 50.8634 73.6C51.386 73.6 51.85 73.4773 52.2554 73.232C52.6714 72.9867 52.9914 72.6293 53.2154 72.16H56.2234C55.9034 73.376 55.2687 74.336 54.3194 75.04C53.37 75.7333 52.2287 76.08 50.8954 76.08C49.8074 76.08 48.8314 75.84 47.9674 75.36C47.114 74.8693 46.4474 74.192 45.9674 73.328C45.4874 72.464 45.2474 71.4773 45.2474 70.368Z" fill="#1B255A"/>
</svg>
